<svg xmlns="http://www.w3.org/2000/svg" style="overflow:visible" viewBox="0 -10 120.64 120.64"><path fill="none" d="M0-15h120.64v120H0z"/><path fill="#007aff" d="M13.73 34.149c-8.475 3.875-6.317 15.573 2.87 15.61l35.014.08c.431.001.552.16.552.554l.081 34.867c.037 9.386 11.83 11.169 15.833 2.46l35.84-77.825c4.266-9.229-2.838-15.933-12.054-11.702Zm14.81 5.139c-.233 0-.288-.186-.033-.292l62.81-28.638c.307-.172.553-.06.31.362L62.906 73.406c-.096.245-.262.212-.262-.032l.192-28.89c.018-3.685-1.681-5.406-5.416-5.388Z"/></svg>