<svg width="143" height="62" viewBox="0 0 143 62" fill="none" xmlns="http://www.w3.org/2000/svg">
<mask id="mask0_9_426" style="mask-type:alpha" maskUnits="userSpaceOnUse" x="0" y="0" width="143" height="62">
<path d="M0 31C0 13.8792 13.8792 0 31 0H112C129.121 0 143 13.8792 143 31V31C143 48.1208 129.121 62 112 62H31C13.8792 62 0 48.1208 0 31V31Z" fill="#333333" shape-rendering="crispEdges"/>
<path d="M0 31C0 13.8792 13.8792 0 31 0H112C129.121 0 143 13.8792 143 31V31C143 48.1208 129.121 62 112 62H31C13.8792 62 0 48.1208 0 31V31Z" fill="white" fill-opacity="0.5" shape-rendering="crispEdges"/>
<path d="M0 31C0 13.8792 13.8792 0 31 0H112C129.121 0 143 13.8792 143 31V31C143 48.1208 129.121 62 112 62H31C13.8792 62 0 48.1208 0 31V31Z" fill="#F7F7F7" shape-rendering="crispEdges"/>
<path d="M0 31C0 13.8792 13.8792 0 31 0H112C129.121 0 143 13.8792 143 31V31C143 48.1208 129.121 62 112 62H31C13.8792 62 0 48.1208 0 31V31Z" fill="black" fill-opacity="0.2"/>
</mask>
<g mask="url(#mask0_9_426)">
<path d="M72 62L63.3397 50.75L80.6603 50.75L72 62Z" fill="#DADADA"/>
<rect x="1" y="3" width="141" height="49" rx="24.5" fill="#DADADA"/>
</g>
</svg>
